<svg width="25" height="25" viewBox="0 0 25 25" fill="none" xmlns="http://www.w3.org/2000/svg">
<path d="M12.5001 15.6251L15.6251 12.5001M15.6251 12.5001L12.5001 9.37508M15.6251 12.5001H4.16675M4.16675 7.5501V7.50029C4.16675 6.33351 4.16675 5.74969 4.39382 5.30404C4.59355 4.91203 4.91203 4.59355 5.30404 4.39382C5.74969 4.16675 6.33351 4.16675 7.50029 4.16675H17.5003C18.6671 4.16675 19.2497 4.16675 19.6953 4.39382C20.0873 4.59355 20.4069 4.91203 20.6065 5.30404C20.8334 5.74925 20.8334 6.33236 20.8334 7.49686V17.5038C20.8334 18.6683 20.8334 19.2506 20.6065 19.6958C20.4069 20.0878 20.0873 20.4069 19.6953 20.6065C19.2501 20.8334 18.6678 20.8334 17.5033 20.8334H7.49686C6.33236 20.8334 5.74925 20.8334 5.30404 20.6065C4.91203 20.4069 4.59355 20.0875 4.39382 19.6955C4.16675 19.2499 4.16675 18.6669 4.16675 17.5001V17.448" stroke="black" stroke-width="2.08333" stroke-linecap="round" stroke-linejoin="round"/>
</svg>
